# xmcd
#
# Track frame offsets: 
#        187
#        17207
#        55437
#
# Disc length: 1026 seconds
#
# Revision: 0
# Processed by: cddbd v1.5PL3 Copyright (c) Steve Scherf et al.
# Submitted via: ExactAudioCopy v0.95a4
#
DISCID=22040003
DTITLE=Goshima Yoshiko - Swingin' the Swing
DYEAR=1997
DGENRE=JPop
TTITLE0=Swingin' the Swing
TTITLE1=First Light (Malawian Club Mix)
TTITLE2=Pierced Earring with No Name (Mad's Summer Swim Mix)
EXTD=
EXTT0=
EXTT1=
EXTT2=
PLAYORDER=
